<svg xmlns="http://www.w3.org/2000/svg" xmlns:xlink="http://www.w3.org/1999/xlink" width="690.805" height="1080" viewBox="0 0 690.805 1080"><defs><style>.a{fill:#fff;}.b{clip-path:url(#a);}.c{opacity:0.096;}.d{fill:none;stroke:#fff;stroke-width:2px;}</style><clipPath id="a"><path class="a" d="M.075,0h414.68l71.23,1080h-690.8Z" transform="translate(1106)"/></clipPath></defs><g class="b" transform="translate(-901.18)"><g class="c" transform="translate(824.075 1429.715) rotate(-90)"><path class="d" d="M610.895,753.773q-52.873-30.384-81.616-86.757T500.534,531.983v-.337q0-78.658,28.744-134.863t81.616-86.424q52.867-30.2,125.072-30.211,59.879,0,106.766,22.954t75.284,63.13q28.4,40.176,33.191,91.823l.341,3.373H850.6l-1.367-5.739q-5.823-27-20.874-46.924a103.062,103.062,0,0,0-38.325-31.055q-23.282-11.141-54.07-11.14-39.7,0-68.78,20.085t-45,56.883q-15.915,36.8-15.913,87.773v.337q0,51.316,15.913,88.612t45.171,57.39q29.257,20.092,68.608,20.086,29.768,0,53.041-10.8A103.67,103.67,0,0,0,828.016,655.7q15.738-20.416,22.244-49.452l.686-3.377H951.891l-.342,3.713q-4.792,51.648-33.363,91.823T842.732,761.37q-46.886,22.786-106.766,22.788Q663.76,784.159,610.895,753.773Z" transform="translate(-360.534 -223.233)"/><path class="d" d="M623.242,282.327H811.791q74.251,0,126.784,28.019t80.586,81.867q28.058,53.85,28.062,131.149v.674q0,77.309-27.891,132.333t-80.585,84.055q-52.7,29.041-126.956,29.034H623.242ZM799.474,685.063q46.19,0,77.849-18.231t48.08-54.014q16.425-35.774,16.422-88.445V523.7q0-50.638-16.763-85.747t-48.6-53.166q-31.822-18.058-76.992-18.064h-72.89v318.34Z" transform="translate(-1.592 -216.975)"/><path class="d" d="M722.6,282.327H830.053l78.021,349.059h2.054l91.021-349.059h90.684l91.024,349.059h2.053l78.022-349.059h107.451L1239.315,769.459H1138.368l-90.679-326.1h-2.057l-91.021,326.1H853.663Z" transform="translate(289.049 -216.975)"/></g></g></svg>