<svg xmlns="http://www.w3.org/2000/svg" width="37.781" height="37.553" viewBox="0 0 37.781 37.553"><defs><style>.a{fill:#fff;}</style></defs><path class="a" d="M38.391-14.625a18.252,18.252,0,0,1-4.57,12.3,18.347,18.347,0,0,1-11.35,6.36V-9.141h4.418l.838-5.484H22.471v-3.58q0-2.895,3.047-2.895h2.361v-4.646a23.8,23.8,0,0,0-4.189-.381,7.131,7.131,0,0,0-5.218,1.9,7.231,7.231,0,0,0-1.942,5.408v4.189h-4.8v5.484h4.8V4.037A18.347,18.347,0,0,1,5.18-2.323a18.252,18.252,0,0,1-4.57-12.3A18.208,18.208,0,0,1,6.132-27.993,18.208,18.208,0,0,1,19.5-33.516a18.208,18.208,0,0,1,13.368,5.522A18.208,18.208,0,0,1,38.391-14.625Z" transform="translate(-0.609 33.516)"/></svg>