<svg xmlns="http://www.w3.org/2000/svg" width="37.625" height="37.625" viewBox="0 0 37.625 37.625"><defs><style>.a{fill:#fff;}</style></defs><path class="a" d="M12.01-22.928A9.385,9.385,0,0,1,18.9-25.783a9.317,9.317,0,0,1,6.845,2.813,9.317,9.317,0,0,1,2.813,6.845A9.317,9.317,0,0,1,25.741-9.28,9.317,9.317,0,0,1,18.9-6.467,9.317,9.317,0,0,1,12.052-9.28a9.317,9.317,0,0,1-2.813-6.845A9.249,9.249,0,0,1,12.01-22.928Zm2.436,11.254A6.067,6.067,0,0,0,18.9-9.826a6.067,6.067,0,0,0,4.451-1.848A6.067,6.067,0,0,0,25.2-16.125a6.067,6.067,0,0,0-1.848-4.451A6.067,6.067,0,0,0,18.9-22.424a6.067,6.067,0,0,0-4.451,1.848A6.067,6.067,0,0,0,12.6-16.125,6.067,6.067,0,0,0,14.445-11.674ZM30.486-27.715a1.917,1.917,0,0,1,.672,1.512,2.254,2.254,0,0,1-.63,1.6,2.045,2.045,0,0,1-1.554.672,2.18,2.18,0,0,1-1.6-.672,2.18,2.18,0,0,1-.672-1.6,2.045,2.045,0,0,1,.672-1.554,2.254,2.254,0,0,1,1.6-.63A1.917,1.917,0,0,1,30.486-27.715Zm7.139,3.863q.084,2.268.084,7.727T37.625-8.4Q37.373-3.275,34.56-.462T26.623,2.52q-2.268.168-7.727.168T11.17,2.52Q6.047,2.268,3.233-.5T.252-8.4Q.084-10.666.084-16.125t.168-7.811a11.413,11.413,0,0,1,3.023-7.811Q6.047-34.6,11.17-34.854q2.268-.084,7.727-.084t7.727.084q5.123.252,7.937,3.065T37.625-23.852ZM33.594-5.039a9.109,9.109,0,0,0,.42-1.722q.168-1.05.252-2.52t.084-2.394v-8.9q0-.924-.084-2.394t-.252-2.52a9.109,9.109,0,0,0-.42-1.722,6.061,6.061,0,0,0-3.611-3.611,9.109,9.109,0,0,0-1.722-.42q-1.05-.168-2.52-.252t-2.352-.084H14.445q-.924,0-2.394.084t-2.52.252a9.109,9.109,0,0,0-1.722.42A6.061,6.061,0,0,0,4.2-27.211a9.109,9.109,0,0,0-.42,1.722q-.168,1.05-.252,2.52t-.084,2.352v8.944q0,.924.084,2.394t.252,2.52A9.109,9.109,0,0,0,4.2-5.039,6.367,6.367,0,0,0,7.811-1.428a9.109,9.109,0,0,0,1.722.42q1.05.168,2.52.252T14.4-.672h8.944q.924,0,2.394-.084t2.52-.252a9.109,9.109,0,0,0,1.722-.42A6.367,6.367,0,0,0,33.594-5.039Z" transform="translate(-0.084 34.938)"/></svg>