<svg xmlns="http://www.w3.org/2000/svg" width="100" height="33.171" viewBox="0 0 100 33.171"><defs><style>.a{fill:#fff;}</style></defs><path class="a" d="M507.8,311.319a13.485,13.485,0,0,1-5.371-5.71,19.36,19.36,0,0,1-1.892-8.887V296.7a19.291,19.291,0,0,1,1.892-8.876,13.431,13.431,0,0,1,5.371-5.688,16.318,16.318,0,0,1,8.231-1.988,15.781,15.781,0,0,1,7.027,1.511,12.882,12.882,0,0,1,4.955,4.155,12.232,12.232,0,0,1,2.184,6.043l.022.222h-6.644l-.09-.378a7.763,7.763,0,0,0-1.374-3.088,6.783,6.783,0,0,0-2.522-2.044,8.154,8.154,0,0,0-3.559-.733,7.768,7.768,0,0,0-4.527,1.322,8.524,8.524,0,0,0-2.962,3.744,14.491,14.491,0,0,0-1.047,5.777v.022a14.8,14.8,0,0,0,1.047,5.832,8.463,8.463,0,0,0,2.973,3.777,7.779,7.779,0,0,0,4.515,1.322,8.2,8.2,0,0,0,3.491-.711,6.823,6.823,0,0,0,2.567-2.055,8.182,8.182,0,0,0,1.464-3.255l.045-.222h6.644l-.023.244a12.17,12.17,0,0,1-2.2,6.043,12.876,12.876,0,0,1-4.966,4.144,15.875,15.875,0,0,1-7.027,1.5A16.24,16.24,0,0,1,507.8,311.319Z" transform="translate(-500.534 -280.148)"/><path class="a" d="M623.242,282.327h12.409A17.522,17.522,0,0,1,644,284.171a12.509,12.509,0,0,1,5.3,5.388,18.5,18.5,0,0,1,1.847,8.631v.044a19.073,19.073,0,0,1-1.836,8.709,12.726,12.726,0,0,1-5.3,5.532,17.076,17.076,0,0,1-8.355,1.911H623.242Zm11.6,26.506a10.121,10.121,0,0,0,5.124-1.2,7.655,7.655,0,0,0,3.164-3.555,13.926,13.926,0,0,0,1.081-5.821v-.044a13.034,13.034,0,0,0-1.1-5.643,7.735,7.735,0,0,0-3.2-3.5,10.116,10.116,0,0,0-5.067-1.189h-4.8v20.951Z" transform="translate(-591.543 -281.772)"/><path class="a" d="M722.6,282.327h7.072l5.135,22.973h.135l5.99-22.973H746.9l5.991,22.973h.135l5.135-22.973h7.072l-8.626,32.06h-6.644L744,292.925h-.135l-5.99,21.462h-6.644Z" transform="translate(-665.234 -281.772)"/></svg>