<svg xmlns="http://www.w3.org/2000/svg" width="43" height="34.938" viewBox="0 0 43 34.938"><defs><style>.a{fill:#fff;}</style></defs><path class="a" d="M38.549-24.859a5,5,0,0,1,.084,1.092,24.726,24.726,0,0,1-1.68,8.86,27.935,27.935,0,0,1-4.745,8.063A22.633,22.633,0,0,1,24.271-.924a25.159,25.159,0,0,1-10.75,2.268A24.468,24.468,0,0,1,0-2.6q.924.084,2.1.084A17.483,17.483,0,0,0,13.1-6.3,8.2,8.2,0,0,1,7.937-8.021a8.77,8.77,0,0,1-3.065-4.325q.84.084,1.6.084a11.194,11.194,0,0,0,2.352-.252,8.885,8.885,0,0,1-5.039-3.107,8.455,8.455,0,0,1-2.016-5.543v-.168a8.3,8.3,0,0,0,3.947,1.176,8.475,8.475,0,0,1-3.947-7.391A8.513,8.513,0,0,1,3.023-32a24.317,24.317,0,0,0,8.021,6.551,24.411,24.411,0,0,0,10.12,2.688A12.241,12.241,0,0,1,21-24.775a8.553,8.553,0,0,1,2.562-6.215,8.346,8.346,0,0,1,6.173-2.6A8.512,8.512,0,0,1,36.2-30.822a17.942,17.942,0,0,0,5.627-2.1,8.752,8.752,0,0,1-3.863,4.871A18.943,18.943,0,0,0,43-29.479,19.384,19.384,0,0,1,38.549-24.859Z" transform="translate(0 33.594)"/></svg>