<svg xmlns="http://www.w3.org/2000/svg" width="42.656" height="30" viewBox="0 0 42.656 30"><defs><style>.a{fill:#fff;}</style></defs><path class="a" d="M42.969-25.312a23.752,23.752,0,0,1,.586,4.063q.2,2.578.273,4.453V-15a45.656,45.656,0,0,1-.859,10.391,5.107,5.107,0,0,1-3.828,3.75,32.3,32.3,0,0,1-5.625.586q-4.141.2-7.578.273H22.5Q9.141,0,5.859-.859a5.107,5.107,0,0,1-3.828-3.75,23.9,23.9,0,0,1-.586-4.1q-.2-2.617-.273-4.414V-15a45.183,45.183,0,0,1,.859-10.312,5.415,5.415,0,0,1,1.406-2.422,5.415,5.415,0,0,1,2.422-1.406,32.3,32.3,0,0,1,5.625-.586q4.141-.2,7.578-.273H22.5q13.359,0,16.641.859a5.415,5.415,0,0,1,2.422,1.406A5.416,5.416,0,0,1,42.969-25.312ZM18.125-8.594,29.3-15,18.125-21.328Z" transform="translate(-1.172 30)"/></svg>